<mxfile host="drawio-plugin" modified="2024-01-09T00:59:29.479Z" agent="5.0 (Windows NT 6.2; Win64; x64) AppleWebKit/537.36 (KHTML, like Gecko) Chrome/104.0.5112.102 Safari/537.36" etag="ae--YGokLOP7laMH2_cu" version="20.5.3" type="embed"><diagram id="23iRSUPoRavnBvh4doch" name="Page-1"><mxGraphModel dx="2050" dy="270" grid="1" gridSize="10" guides="1" tooltips="1" connect="1" arrows="1" fold="1" page="1" pageScale="1" pageWidth="827" pageHeight="1169" math="0" shadow="0"><root><mxCell id="0"/><mxCell id="1" parent="0"/><mxCell id="82" style="edgeStyle=orthogonalEdgeStyle;rounded=0;orthogonalLoop=1;jettySize=auto;html=1;entryX=0.5;entryY=0;entryDx=0;entryDy=0;strokeColor=default;fontColor=#F0F0F0;labelBackgroundColor=none;" edge="1" parent="1" source="83"><mxGeometry relative="1" as="geometry"><mxPoint x="5" y="140" as="targetPoint"/></mxGeometry></mxCell><mxCell id="83" value="&lt;font style=&quot;font-size: 20px;&quot;&gt;Початок&lt;/font&gt;" style="ellipse;whiteSpace=wrap;html=1;strokeColor=default;fontColor=#F0F0F0;labelBackgroundColor=none;" vertex="1" parent="1"><mxGeometry x="-110" y="10" width="230" height="100" as="geometry"/></mxCell><mxCell id="84" value="&lt;span style=&quot;font-size: 20px;&quot;&gt;Кінець&lt;/span&gt;" style="ellipse;whiteSpace=wrap;html=1;strokeColor=default;fontColor=#F0F0F0;labelBackgroundColor=none;" vertex="1" parent="1"><mxGeometry x="195" y="165" width="230" height="100" as="geometry"/></mxCell><mxCell id="85" value="В кращому випадку -&amp;nbsp;O(n*log n)&lt;br&gt;В середньому випадку -&amp;nbsp;O(n*log n)&lt;br&gt;В гіршому випадку -&amp;nbsp;O(n&lt;span style=&quot;margin: 0px; padding: 0px; box-sizing: border-box; line-height: 0; position: relative; vertical-align: baseline; top: -0.5em; font-family: euclid_circular_a, Arial, &amp;quot;Source Sans Pro&amp;quot;, &amp;quot;Helvetica Neue&amp;quot;, Helvetica, Arial, sans-serif; text-align: start; background-color: rgb(248, 250, 255);&quot;&gt;2&lt;/span&gt;&lt;span style=&quot;font-family: euclid_circular_a, Arial, &amp;quot;Source Sans Pro&amp;quot;, &amp;quot;Helvetica Neue&amp;quot;, Helvetica, Arial, sans-serif; font-size: 16px; text-align: start; background-color: rgb(248, 250, 255);&quot;&gt;)&lt;/span&gt;" style="text;html=1;align=center;verticalAlign=middle;resizable=0;points=[];autosize=1;strokeColor=default;fillColor=none;fontColor=#F0F0F0;labelBackgroundColor=none;" vertex="1" parent="1"><mxGeometry x="167.5" y="50" width="210" height="60" as="geometry"/></mxCell><mxCell id="86" style="edgeStyle=orthogonalEdgeStyle;rounded=0;orthogonalLoop=1;jettySize=auto;html=1;entryX=0;entryY=0.5;entryDx=0;entryDy=0;fontColor=#F0F0F0;" edge="1" parent="1" source="88" target="84"><mxGeometry relative="1" as="geometry"/></mxCell><mxCell id="87" style="edgeStyle=orthogonalEdgeStyle;rounded=0;orthogonalLoop=1;jettySize=auto;html=1;entryX=0.5;entryY=0;entryDx=0;entryDy=0;fontColor=#F0F0F0;" edge="1" parent="1" source="88" target="91"><mxGeometry relative="1" as="geometry"/></mxCell><mxCell id="88" value="&lt;div style=&quot;font-family: &amp;quot;JetBrains Mono&amp;quot;, monospace;&quot;&gt;&lt;pre&gt;quickSort(&lt;span style=&quot;&quot;&gt;int&lt;/span&gt;[] arr&lt;span style=&quot;&quot;&gt;, int &lt;/span&gt;start&lt;span style=&quot;&quot;&gt;, int &lt;/span&gt;end)&lt;/pre&gt;&lt;/div&gt;" style="ellipse;whiteSpace=wrap;html=1;strokeColor=default;fontColor=#F0F0F0;labelBackgroundColor=none;" vertex="1" parent="1"><mxGeometry x="-130" y="150" width="270" height="130" as="geometry"/></mxCell><mxCell id="89" style="edgeStyle=orthogonalEdgeStyle;rounded=0;orthogonalLoop=1;jettySize=auto;html=1;entryX=0.5;entryY=0;entryDx=0;entryDy=0;fontColor=#F0F0F0;" edge="1" parent="1" source="91" target="94"><mxGeometry relative="1" as="geometry"/></mxCell><mxCell id="90" style="edgeStyle=orthogonalEdgeStyle;rounded=0;orthogonalLoop=1;jettySize=auto;html=1;entryX=0.5;entryY=1;entryDx=0;entryDy=0;fontColor=#F0F0F0;" edge="1" parent="1" source="91" target="84"><mxGeometry relative="1" as="geometry"/></mxCell><mxCell id="91" value="&lt;div style=&quot;font-family: &amp;quot;JetBrains Mono&amp;quot;, monospace;&quot;&gt;&lt;pre&gt;start &amp;lt; end&lt;/pre&gt;&lt;/div&gt;" style="rhombus;whiteSpace=wrap;html=1;strokeColor=default;fontColor=#F0F0F0;labelBackgroundColor=none;" vertex="1" parent="1"><mxGeometry x="-52.5" y="310" width="115" height="110" as="geometry"/></mxCell><mxCell id="92" style="edgeStyle=orthogonalEdgeStyle;rounded=0;orthogonalLoop=1;jettySize=auto;html=1;entryX=1;entryY=0.5;entryDx=0;entryDy=0;fontColor=#F0F0F0;" edge="1" parent="1" source="94" target="125"><mxGeometry relative="1" as="geometry"/></mxCell><mxCell id="93" style="edgeStyle=orthogonalEdgeStyle;rounded=0;orthogonalLoop=1;jettySize=auto;html=1;entryX=1;entryY=0.5;entryDx=0;entryDy=0;exitX=1;exitY=0.5;exitDx=0;exitDy=0;fontColor=#F0F0F0;" edge="1" parent="1" source="94" target="96"><mxGeometry relative="1" as="geometry"><Array as="points"><mxPoint x="210" y="505"/><mxPoint x="210" y="730"/></Array></mxGeometry></mxCell><mxCell id="94" value="&lt;div style=&quot;font-family: &amp;quot;JetBrains Mono&amp;quot;, monospace;&quot;&gt;&lt;pre&gt;int divideIndex = &lt;span style=&quot;font-style:italic;&quot;&gt;findPosition&lt;/span&gt;(arr&lt;span style=&quot;&quot;&gt;, &lt;/span&gt;start&lt;span style=&quot;&quot;&gt;, &lt;/span&gt;end)&lt;span style=&quot;&quot;&gt;;&lt;/span&gt;&lt;/pre&gt;&lt;/div&gt;" style="rounded=0;whiteSpace=wrap;html=1;strokeColor=default;fontColor=#F0F0F0;labelBackgroundColor=none;" vertex="1" parent="1"><mxGeometry x="-157.5" y="470" width="325" height="70" as="geometry"/></mxCell><mxCell id="95" style="edgeStyle=orthogonalEdgeStyle;rounded=0;orthogonalLoop=1;jettySize=auto;html=1;entryX=0.5;entryY=0;entryDx=0;entryDy=0;fontColor=#F0F0F0;" edge="1" parent="1" source="96" target="99"><mxGeometry relative="1" as="geometry"/></mxCell><mxCell id="96" value="&lt;pre style=&quot;border-color: var(--border-color);&quot;&gt;findPosition(arr&lt;span style=&quot;border-color: var(--border-color);&quot;&gt;, &lt;/span&gt;start&lt;span style=&quot;border-color: var(--border-color);&quot;&gt;, &lt;/span&gt;end)&lt;span style=&quot;border-color: var(--border-color);&quot;&gt;;&lt;/span&gt;&lt;/pre&gt;" style="ellipse;whiteSpace=wrap;html=1;strokeColor=default;fontColor=#F0F0F0;labelBackgroundColor=none;" vertex="1" parent="1"><mxGeometry x="-100" y="680" width="230" height="100" as="geometry"/></mxCell><mxCell id="97" style="edgeStyle=orthogonalEdgeStyle;rounded=0;orthogonalLoop=1;jettySize=auto;html=1;entryX=0.5;entryY=0;entryDx=0;entryDy=0;exitX=0.5;exitY=1;exitDx=0;exitDy=0;fontColor=#F0F0F0;" edge="1" parent="1" source="135" target="103"><mxGeometry relative="1" as="geometry"><mxPoint x="15" y="1100.0000000000002" as="sourcePoint"/></mxGeometry></mxCell><mxCell id="98" style="edgeStyle=orthogonalEdgeStyle;rounded=0;orthogonalLoop=1;jettySize=auto;html=1;entryX=0.5;entryY=0;entryDx=0;entryDy=0;fontColor=#F0F0F0;" edge="1" parent="1" source="99" target="135"><mxGeometry relative="1" as="geometry"/></mxCell><mxCell id="99" value="&lt;div style=&quot;background-color: rgb(43, 43, 43);&quot;&gt;&lt;h4 style=&quot;&quot;&gt;&lt;div style=&quot;text-align: justify;&quot;&gt;&lt;span style=&quot;font-weight: normal;&quot;&gt;int left = start&lt;/span&gt;&lt;span style=&quot;font-weight: normal;&quot;&gt;;&lt;/span&gt;&lt;/div&gt;&lt;font style=&quot;&quot; face=&quot;Helvetica&quot;&gt;&lt;div style=&quot;text-align: justify;&quot;&gt;&lt;span style=&quot;font-weight: normal;&quot;&gt;int &lt;/span&gt;&lt;span style=&quot;font-weight: normal;&quot;&gt;right = end&lt;/span&gt;&lt;span style=&quot;font-weight: normal;&quot;&gt;;&lt;/span&gt;&lt;/div&gt;&lt;span style=&quot;&quot;&gt;&lt;div style=&quot;text-align: justify;&quot;&gt;&lt;span style=&quot;font-weight: normal;&quot;&gt;int &lt;/span&gt;&lt;font style=&quot;font-weight: normal;&quot;&gt;pivot = arr[start]&lt;/font&gt;&lt;span style=&quot;font-weight: normal;&quot;&gt;;&lt;/span&gt;&lt;/div&gt;&lt;/span&gt;&lt;/font&gt;&lt;/h4&gt;&lt;/div&gt;" style="rounded=0;whiteSpace=wrap;html=1;fontColor=#F0F0F0;" vertex="1" parent="1"><mxGeometry x="-92.5" y="805" width="215" height="80" as="geometry"/></mxCell><mxCell id="100" style="edgeStyle=orthogonalEdgeStyle;rounded=0;orthogonalLoop=1;jettySize=auto;html=1;entryX=0;entryY=0.5;entryDx=0;entryDy=0;fontColor=#F0F0F0;" edge="1" parent="1" source="103" target="105"><mxGeometry relative="1" as="geometry"/></mxCell><mxCell id="101" style="edgeStyle=orthogonalEdgeStyle;rounded=0;orthogonalLoop=1;jettySize=auto;html=1;entryX=0.5;entryY=0;entryDx=0;entryDy=0;fontColor=#F0F0F0;" edge="1" parent="1" source="103" target="108"><mxGeometry relative="1" as="geometry"/></mxCell><mxCell id="102" style="edgeStyle=orthogonalEdgeStyle;rounded=0;orthogonalLoop=1;jettySize=auto;html=1;entryX=0;entryY=0.5;entryDx=0;entryDy=0;exitX=0;exitY=0.5;exitDx=0;exitDy=0;fontColor=#F0F0F0;" edge="1" parent="1" source="135" target="122"><mxGeometry relative="1" as="geometry"><Array as="points"><mxPoint x="-160" y="1005"/><mxPoint x="-160" y="1665"/></Array></mxGeometry></mxCell><mxCell id="103" value="&lt;div style=&quot;background-color: rgb(43, 43, 43); font-family: &amp;quot;JetBrains Mono&amp;quot;, monospace;&quot;&gt;&lt;pre&gt;while (arr[left] &amp;lt; pivot)&lt;br&gt;&lt;/pre&gt;&lt;/div&gt;" style="shape=hexagon;perimeter=hexagonPerimeter2;whiteSpace=wrap;html=1;fixedSize=1;fontColor=#F0F0F0;" vertex="1" parent="1"><mxGeometry x="-74.5" y="1125" width="190" height="90" as="geometry"/></mxCell><mxCell id="104" style="edgeStyle=orthogonalEdgeStyle;rounded=0;orthogonalLoop=1;jettySize=auto;html=1;entryX=1;entryY=0.25;entryDx=0;entryDy=0;fontColor=#F0F0F0;" edge="1" parent="1" source="105" target="108"><mxGeometry relative="1" as="geometry"><Array as="points"><mxPoint x="270" y="1225"/><mxPoint x="97" y="1225"/></Array></mxGeometry></mxCell><mxCell id="105" value="&lt;div style=&quot;background-color: rgb(43, 43, 43); font-family: &amp;quot;JetBrains Mono&amp;quot;, monospace;&quot;&gt;&lt;pre&gt;left++;&lt;/pre&gt;&lt;/div&gt;" style="whiteSpace=wrap;html=1;fontColor=#F0F0F0;" vertex="1" parent="1"><mxGeometry x="210" y="1140" width="120" height="60" as="geometry"/></mxCell><mxCell id="106" style="edgeStyle=orthogonalEdgeStyle;rounded=0;orthogonalLoop=1;jettySize=auto;html=1;exitX=1;exitY=0.75;exitDx=0;exitDy=0;entryX=0;entryY=0.5;entryDx=0;entryDy=0;fontColor=#F0F0F0;" edge="1" parent="1" source="108" target="113"><mxGeometry relative="1" as="geometry"/></mxCell><mxCell id="107" style="edgeStyle=orthogonalEdgeStyle;rounded=0;orthogonalLoop=1;jettySize=auto;html=1;entryX=0.5;entryY=0;entryDx=0;entryDy=0;fontColor=#F0F0F0;" edge="1" parent="1" source="108" target="111"><mxGeometry relative="1" as="geometry"/></mxCell><mxCell id="108" value="&lt;div style=&quot;background-color: rgb(43, 43, 43); font-family: &amp;quot;JetBrains Mono&amp;quot;, monospace;&quot;&gt;&lt;pre&gt;&lt;div style=&quot;font-family: &amp;quot;JetBrains Mono&amp;quot;, monospace;&quot;&gt;&lt;pre&gt;while (arr[right] &amp;gt; pivot)&lt;/pre&gt;&lt;/div&gt;&lt;/pre&gt;&lt;/div&gt;" style="shape=hexagon;perimeter=hexagonPerimeter2;whiteSpace=wrap;html=1;fixedSize=1;fontColor=#F0F0F0;" vertex="1" parent="1"><mxGeometry x="-70.75" y="1255" width="182.5" height="90" as="geometry"/></mxCell><mxCell id="109" style="edgeStyle=orthogonalEdgeStyle;rounded=0;orthogonalLoop=1;jettySize=auto;html=1;entryX=0.5;entryY=0;entryDx=0;entryDy=0;fontColor=#F0F0F0;" edge="1" parent="1" source="111" target="116"><mxGeometry relative="1" as="geometry"/></mxCell><mxCell id="110" style="edgeStyle=orthogonalEdgeStyle;rounded=0;orthogonalLoop=1;jettySize=auto;html=1;entryX=0;entryY=0.75;entryDx=0;entryDy=0;fontColor=#F0F0F0;" edge="1" parent="1" source="111" target="135"><mxGeometry relative="1" as="geometry"><Array as="points"><mxPoint x="-80" y="1425"/><mxPoint x="-80" y="1025"/></Array></mxGeometry></mxCell><mxCell id="111" value="&lt;div style=&quot;background-color: rgb(43, 43, 43); font-family: &amp;quot;JetBrains Mono&amp;quot;, monospace;&quot;&gt;&lt;pre&gt;left &amp;lt;= right&lt;/pre&gt;&lt;/div&gt;" style="rhombus;whiteSpace=wrap;html=1;fontColor=#F0F0F0;" vertex="1" parent="1"><mxGeometry x="-45" y="1375" width="131" height="100" as="geometry"/></mxCell><mxCell id="112" style="edgeStyle=orthogonalEdgeStyle;rounded=0;orthogonalLoop=1;jettySize=auto;html=1;entryX=1;entryY=0;entryDx=0;entryDy=0;fontColor=#F0F0F0;" edge="1" parent="1" source="113" target="111"><mxGeometry relative="1" as="geometry"><Array as="points"><mxPoint x="270" y="1400"/></Array></mxGeometry></mxCell><mxCell id="113" value="&lt;div style=&quot;background-color: rgb(43, 43, 43); font-family: &amp;quot;JetBrains Mono&amp;quot;, monospace;&quot;&gt;&lt;pre&gt;&lt;div style=&quot;font-family: &amp;quot;JetBrains Mono&amp;quot;, monospace;&quot;&gt;&lt;pre&gt;right--;&lt;/pre&gt;&lt;/div&gt;&lt;/pre&gt;&lt;/div&gt;" style="whiteSpace=wrap;html=1;fontColor=#F0F0F0;" vertex="1" parent="1"><mxGeometry x="210" y="1285" width="120" height="60" as="geometry"/></mxCell><mxCell id="114" style="edgeStyle=orthogonalEdgeStyle;rounded=0;orthogonalLoop=1;jettySize=auto;html=1;entryX=0;entryY=0.5;entryDx=0;entryDy=0;fontColor=#F0F0F0;" edge="1" parent="1" source="116" target="118"><mxGeometry relative="1" as="geometry"/></mxCell><mxCell id="115" style="edgeStyle=orthogonalEdgeStyle;rounded=0;orthogonalLoop=1;jettySize=auto;html=1;entryX=0;entryY=0.75;entryDx=0;entryDy=0;fontColor=#F0F0F0;" edge="1" parent="1" source="116" target="135"><mxGeometry relative="1" as="geometry"><Array as="points"><mxPoint x="-120" y="1555"/><mxPoint x="-120" y="1025"/></Array></mxGeometry></mxCell><mxCell id="116" value="&lt;div style=&quot;background-color: rgb(43, 43, 43); font-family: &amp;quot;JetBrains Mono&amp;quot;, monospace;&quot;&gt;&lt;pre&gt;swap(arr&lt;span style=&quot;&quot;&gt;, &lt;/span&gt;left&lt;span style=&quot;&quot;&gt;, &lt;/span&gt;right)&lt;span style=&quot;&quot;&gt;;&lt;br&gt;&lt;/span&gt;left++&lt;span style=&quot;&quot;&gt;;&lt;br&gt;&lt;/span&gt;right--&lt;span style=&quot;&quot;&gt;;&lt;/span&gt;&lt;/pre&gt;&lt;/div&gt;" style="rounded=0;whiteSpace=wrap;html=1;fontColor=#F0F0F0;" vertex="1" parent="1"><mxGeometry x="-72.5" y="1510" width="186" height="90" as="geometry"/></mxCell><mxCell id="117" style="edgeStyle=orthogonalEdgeStyle;rounded=0;orthogonalLoop=1;jettySize=auto;html=1;entryX=1;entryY=0.5;entryDx=0;entryDy=0;exitX=1;exitY=0.5;exitDx=0;exitDy=0;fontColor=#F0F0F0;" edge="1" parent="1" source="118" target="120"><mxGeometry relative="1" as="geometry"/></mxCell><mxCell id="118" value="&lt;pre style=&quot;border-color: var(--border-color);&quot;&gt;swap(arr, left&lt;span style=&quot;border-color: var(--border-color);&quot;&gt;, &lt;/span&gt;right)&lt;span style=&quot;border-color: var(--border-color);&quot;&gt;;&lt;/span&gt;&lt;/pre&gt;" style="ellipse;whiteSpace=wrap;html=1;fontColor=#F0F0F0;" vertex="1" parent="1"><mxGeometry x="240" y="1515" width="190" height="80" as="geometry"/></mxCell><mxCell id="119" style="edgeStyle=orthogonalEdgeStyle;rounded=0;orthogonalLoop=1;jettySize=auto;html=1;entryX=1;entryY=0.75;entryDx=0;entryDy=0;fontColor=#F0F0F0;" edge="1" parent="1" source="120" target="116"><mxGeometry relative="1" as="geometry"/></mxCell><mxCell id="120" value="&lt;div style=&quot;background-color: rgb(43, 43, 43); font-family: &amp;quot;JetBrains Mono&amp;quot;, monospace;&quot;&gt;&lt;pre&gt;int num = arr[left]&lt;span style=&quot;&quot;&gt;;&lt;br&gt;&lt;/span&gt;arr[left] = arr[right]&lt;span style=&quot;&quot;&gt;;&lt;br&gt;&lt;/span&gt;arr[right] = num&lt;span style=&quot;&quot;&gt;;&lt;/span&gt;&lt;/pre&gt;&lt;/div&gt;" style="rounded=0;whiteSpace=wrap;html=1;fontColor=#F0F0F0;" vertex="1" parent="1"><mxGeometry x="240" y="1635" width="185" height="80" as="geometry"/></mxCell><mxCell id="121" style="edgeStyle=orthogonalEdgeStyle;rounded=0;orthogonalLoop=1;jettySize=auto;html=1;entryX=0.5;entryY=1;entryDx=0;entryDy=0;exitX=0.5;exitY=1;exitDx=0;exitDy=0;fontColor=#F0F0F0;" edge="1" parent="1" source="122" target="94"><mxGeometry relative="1" as="geometry"><Array as="points"><mxPoint x="21" y="1715"/><mxPoint x="-240" y="1715"/><mxPoint x="-240" y="590"/><mxPoint x="5" y="590"/></Array></mxGeometry></mxCell><mxCell id="122" value="&lt;div style=&quot;background-color: rgb(43, 43, 43); font-family: &amp;quot;JetBrains Mono&amp;quot;, monospace;&quot;&gt;&lt;pre&gt;return left&lt;span style=&quot;&quot;&gt;;&lt;/span&gt;&lt;/pre&gt;&lt;/div&gt;" style="rounded=0;whiteSpace=wrap;html=1;fontColor=#F0F0F0;" vertex="1" parent="1"><mxGeometry x="-39.5" y="1635" width="120" height="60" as="geometry"/></mxCell><mxCell id="123" style="edgeStyle=orthogonalEdgeStyle;rounded=0;orthogonalLoop=1;jettySize=auto;html=1;entryX=0;entryY=0.5;entryDx=0;entryDy=0;fontColor=#F0F0F0;" edge="1" parent="1" source="125" target="88"><mxGeometry relative="1" as="geometry"><Array as="points"><mxPoint x="-387" y="350"/><mxPoint x="-177" y="350"/><mxPoint x="-177" y="215"/></Array></mxGeometry></mxCell><mxCell id="124" style="edgeStyle=orthogonalEdgeStyle;rounded=0;orthogonalLoop=1;jettySize=auto;html=1;entryX=1;entryY=0.5;entryDx=0;entryDy=0;fontColor=#F0F0F0;" edge="1" parent="1" source="125" target="127"><mxGeometry relative="1" as="geometry"/></mxCell><mxCell id="125" value="&lt;div style=&quot;font-family: &amp;quot;JetBrains Mono&amp;quot;, monospace;&quot;&gt;&lt;pre&gt;&lt;div style=&quot;background-color: rgb(43, 43, 43); font-family: &amp;quot;JetBrains Mono&amp;quot;, monospace;&quot;&gt;&lt;pre&gt;quickSort(arr&lt;span style=&quot;&quot;&gt;, &lt;/span&gt;start&lt;span style=&quot;&quot;&gt;, &lt;/span&gt;divideIndex - &lt;span style=&quot;&quot;&gt;1&lt;/span&gt;)&lt;span style=&quot;&quot;&gt;;&lt;br&gt;&lt;/span&gt;&lt;/pre&gt;&lt;/div&gt;&lt;/pre&gt;&lt;/div&gt;" style="rounded=0;whiteSpace=wrap;html=1;strokeColor=default;fontColor=#F0F0F0;labelBackgroundColor=none;" vertex="1" parent="1"><mxGeometry x="-540" y="470" width="325" height="70" as="geometry"/></mxCell><mxCell id="126" style="edgeStyle=orthogonalEdgeStyle;rounded=0;orthogonalLoop=1;jettySize=auto;html=1;entryX=0;entryY=0.5;entryDx=0;entryDy=0;fontColor=#F0F0F0;" edge="1" parent="1" source="127" target="88"><mxGeometry relative="1" as="geometry"><Array as="points"><mxPoint x="-773" y="215"/></Array></mxGeometry></mxCell><mxCell id="127" value="&lt;div style=&quot;font-family: &amp;quot;JetBrains Mono&amp;quot;, monospace;&quot;&gt;&lt;pre&gt;&lt;div style=&quot;background-color: rgb(43, 43, 43); font-family: &amp;quot;JetBrains Mono&amp;quot;, monospace;&quot;&gt;&lt;pre&gt;quickSort(arr&lt;span style=&quot;&quot;&gt;, &lt;/span&gt;divideIndex&lt;span style=&quot;&quot;&gt;, &lt;/span&gt;end)&lt;span style=&quot;&quot;&gt;;&lt;br&gt;&lt;/span&gt;&lt;/pre&gt;&lt;/div&gt;&lt;/pre&gt;&lt;/div&gt;" style="rounded=0;whiteSpace=wrap;html=1;strokeColor=default;fontColor=#F0F0F0;labelBackgroundColor=none;" vertex="1" parent="1"><mxGeometry x="-930" y="470" width="325" height="70" as="geometry"/></mxCell><mxCell id="128" value="Так" style="text;html=1;align=center;verticalAlign=middle;resizable=0;points=[];autosize=1;strokeColor=none;fillColor=none;fontColor=#F0F0F0;" vertex="1" parent="1"><mxGeometry x="10" y="400" width="40" height="30" as="geometry"/></mxCell><mxCell id="129" value="Ні" style="text;html=1;align=center;verticalAlign=middle;resizable=0;points=[];autosize=1;strokeColor=none;fillColor=none;fontColor=#F0F0F0;" vertex="1" parent="1"><mxGeometry x="55" y="338" width="30" height="30" as="geometry"/></mxCell><mxCell id="130" value="Так" style="text;html=1;align=center;verticalAlign=middle;resizable=0;points=[];autosize=1;strokeColor=none;fillColor=none;fontColor=#F0F0F0;" vertex="1" parent="1"><mxGeometry x="108" y="1140" width="40" height="30" as="geometry"/></mxCell><mxCell id="131" value="Так" style="text;html=1;align=center;verticalAlign=middle;resizable=0;points=[];autosize=1;strokeColor=none;fillColor=none;fontColor=#F0F0F0;" vertex="1" parent="1"><mxGeometry x="98" y="1320" width="40" height="30" as="geometry"/></mxCell><mxCell id="132" value="Так" style="text;html=1;align=center;verticalAlign=middle;resizable=0;points=[];autosize=1;strokeColor=none;fillColor=none;fontColor=#F0F0F0;" vertex="1" parent="1"><mxGeometry x="15" y="1465" width="40" height="30" as="geometry"/></mxCell><mxCell id="133" value="Ні" style="text;html=1;align=center;verticalAlign=middle;resizable=0;points=[];autosize=1;strokeColor=none;fillColor=none;fontColor=#F0F0F0;" vertex="1" parent="1"><mxGeometry x="20" y="1215" width="30" height="30" as="geometry"/></mxCell><mxCell id="134" value="Ні" style="text;html=1;align=center;verticalAlign=middle;resizable=0;points=[];autosize=1;strokeColor=none;fillColor=none;fontColor=#F0F0F0;" vertex="1" parent="1"><mxGeometry x="20" y="1345" width="30" height="30" as="geometry"/></mxCell><mxCell id="135" value="&lt;div style=&quot;background-color: rgb(43, 43, 43); font-family: &amp;quot;JetBrains Mono&amp;quot;, monospace;&quot;&gt;&lt;pre&gt;while (left &amp;lt;= right)&lt;/pre&gt;&lt;/div&gt;" style="shape=hexagon;perimeter=hexagonPerimeter2;whiteSpace=wrap;html=1;fixedSize=1;fontColor=#F0F0F0;" vertex="1" parent="1"><mxGeometry x="-67" y="960" width="175" height="90" as="geometry"/></mxCell><mxCell id="136" value="Так" style="text;html=1;align=center;verticalAlign=middle;resizable=0;points=[];autosize=1;strokeColor=none;fillColor=none;fontColor=#F0F0F0;" vertex="1" parent="1"><mxGeometry x="15" y="1050" width="40" height="30" as="geometry"/></mxCell><mxCell id="137" value="Ні" style="text;html=1;align=center;verticalAlign=middle;resizable=0;points=[];autosize=1;strokeColor=none;fillColor=none;fontColor=#F0F0F0;" vertex="1" parent="1"><mxGeometry x="-67" y="1400" width="30" height="30" as="geometry"/></mxCell><mxCell id="138" value="ні" style="text;html=1;align=center;verticalAlign=middle;resizable=0;points=[];autosize=1;strokeColor=none;fillColor=none;fontColor=#F0F0F0;" vertex="1" parent="1"><mxGeometry x="-92.5" y="968" width="30" height="30" as="geometry"/></mxCell></root></mxGraphModel></diagram></mxfile>